Patient4_TMGait_0pt6_02_left_23_EMG.mot
version=1
nRows=26
nColumns=33
inDegrees=no
endheader
time	1LAddLong	2LGlutMax	3LGlutMed	4LIliopsoas	5LSemiMemb	6LBicFemLong	7LRecFem	8LVastMed	9LVastLat	10LGasMed	11LTibAnt	12lTibPost	13LPeroneusLong	14LSol	15LExtDigLong	16LFlexDigLong	17RAddLong	18RGlutMax	19RGlutMed	20RIliopsoas	21RSemiMemb	22RBicFemLong	23RRecFem	24RVastMed	25RVastLat	26RGasMed	27RTibAnt	28RTibPost	29RPeroneusLong	30RSol	31RExtDigLong	32RFlexDigLong
28.15	-0.000305	0.00473	0.037079	0.002594	0.04425	0.056458	0.17532	0.015869	0.26489	0.085449	-0.085449	0.002136	0.045471	-0.007019	-0.25421	0.000916	-0.002594	-0.095062	-0.10193	-0.025635	-0.042114	-0.029907	-0.22659	0.18616	-0.159	-0.010376	-0.35172	-0.011597	-0.11673	0.24063	0.001831	-0.005493
28.151	0.003204	-0.023041	-0.02655	-0.01297	0.00351	0.009766	0.17716	0.014038	0.30045	0.090027	-0.049744	0.002289	0.058594	-0.00412	-0.13458	0.004272	-0.014954	-0.043945	-0.20477	-0.083618	-0.037994	-0.014648	-0.24338	0.14954	0.007172	-0.00885	-0.30334	-0.011444	0.049438	0.13397	0.001221	-0.002289
28.152	0.001373	-0.071259	-0.097961	0.001373	0.014954	0.02594	0.18784	0.045624	0.31311	0.011902	0.020294	0.003967	0.034637	-0.02182	0.010071	0.001831	0.011902	-0.074615	-0.13184	-0.1535	-0.038757	0.032043	-0.09903	0.056	-0.079041	-0.006561	-0.17456	-0.006409	-0.059204	-0.001831	-0.002136	0.000763
28.153	0.023651	-0.088654	-0.11887	-0.015259	0.041809	0.027313	0.15259	0.026245	0.30945	-0.033264	0.13947	0.00473	-0.015411	-0.019379	0.028839	0.014648	0.013885	-0.14404	0.36041	-0.16129	-0.026245	0.041504	-0.05249	0.016479	-0.090332	-0.007935	-0.13138	-0.007324	-0.18387	-0.03067	-0.00061	0.001526
28.154	-0.00061	-0.11185	-0.067596	-0.011597	0.016022	0.019989	0.20065	0.020599	0.31494	-0.10101	0.13672	0.00061	0.067139	0.009155	0.022125	0.008698	0.007629	-0.24994	-0.23453	-0.12421	-0.037842	-0.035858	-0.018005	0.0177	-0.10223	-0.007629	-0.092926	-0.001984	-0.080566	-0.059052	-0.000153	-0.000305
28.155	0.02655	-0.086365	-0.051575	0.010681	0.01297	0.020905	0.22842	-0.000458	0.32761	-0.13153	0.098877	0.00061	0.13825	-0.018616	0.007629	0.000763	-0.00885	-0.34439	-0.86029	-0.19226	-0.027466	-0.061188	-0.001526	0.02182	-0.083771	-0.001678	-0.065765	-0.007019	0.09552	-0.014038	0	-0.004425
28.156	0.019989	-0.079498	-0.036163	0.016174	0.003357	0.053558	0.25833	0.007324	0.34943	-0.072784	-0.040741	0.000305	0.078125	-0.025635	0.009918	-0.002289	0.010529	-0.27481	-0.27756	0.005798	-0.019226	-0.005188	0.041046	-0.035858	-0.064545	-0.012817	0.097351	-0.011597	0.067596	0.000153	-0.001221	0.000458
28.157	0.003052	-0.07782	-0.046844	0.007324	-0.000763	0.028229	0.2182	0.002899	0.35233	0.001068	-0.086365	0.004425	-0.004578	-0.012817	0.087738	-0.004272	0.005951	-0.36819	-0.2359	0.16922	-0.026855	-0.050507	0.08194	0.017548	-0.018921	-0.015564	0.1944	-0.00412	-0.24689	0.009308	0.002441	-0.007935
28.158	0.000916	-0.054932	-0.08255	-0.002899	-0.003357	0.019379	0.16678	0.002441	0.31708	0.010223	-0.11581	0.000458	0.019836	0.011597	0.21316	0.003815	0.010681	-0.33279	-0.54977	0.28137	-0.044556	-0.1535	0.21912	0.052948	-0.026703	-0.010376	0.26916	-0.004425	-0.24338	0.037537	-0.000305	-0.00946
28.159	0.016785	-0.029755	-0.049286	0.000153	-0.03067	-0.007477	0.12375	0.005646	0.31418	-0.017242	-0.10468	-0.000153	0.052643	0.029602	0.19913	0.02243	0.008087	-0.2269	-0.2272	0.1506	-0.076294	-0.10223	0.27695	-0.00351	-0.044556	-0.005798	0.30838	-0.000763	-0.48248	0.034485	0.001678	-0.011139
28.16	-0.005035	0.004272	-0.080719	-0.003967	-0.004425	-0.017853	0.097351	0.004272	0.31448	-0.029297	-0.011444	-0.00061	0.034332	0.039215	0.14725	0.006104	-0.013123	-0.21881	-0.14771	0.04837	-0.10056	-0.014954	0.34027	0.00412	-0.049133	-0.000305	0.21927	-0.001526	-0.19318	-0.021973	0.000458	-0.002747
28.161	-0.005798	0.022736	-0.1355	0.018616	-0.002289	0.003662	0.083466	-0.002747	0.31006	-0.03006	0.14618	0.002747	0.015717	0.035095	0.099792	0.005188	-0.015106	-0.18753	0.07782	0.095367	0.029907	-0.00351	0.30746	0.064697	-0.059357	0	-0.17899	-0.007782	0.26413	0.040741	0.001221	-0.013123
28.162	0.001221	0.027618	-0.10437	0.013123	-0.013428	-0.009155	0.09201	-0.002289	0.31143	-0.059509	0.21286	-0.003052	0.017242	0.068054	-0.10483	0.00824	-0.022888	-0.088501	0.12268	0.13443	0.0737	0.02594	0.11536	-0.13412	-0.055695	0.001831	-0.29266	-0.010376	-0.4808	0.079346	0.000763	-0.00885
28.163	0.005951	0.032043	-0.065613	0.015717	-0.00412	-0.019836	0.054169	0.007172	0.30334	-0.070648	0.23331	0.000916	0.043335	-0.004578	-0.14221	-0.007629	-0.023956	-0.048828	0.048981	0.18295	0.044098	-0.011749	-0.045471	-0.32532	-0.057526	0.001526	-0.10101	-0.009155	-1.3489	0.010071	-0.001221	-0.013428
28.164	0.001068	0.018005	0.031891	0.030975	0.01297	-0.003204	0.043182	0.005035	0.2977	-0.036926	0.068359	0.002441	0.049286	-0.072937	-0.12482	-0.007782	-0.023346	0.034027	0.54855	0.11139	0.046082	-0.087433	-0.012512	-0.2652	-0.11047	0.000763	0.041351	-0.011139	-1.523	-0.023193	-0.002594	-0.006714
28.165	-0.014191	0.028839	0.02533	0.012817	0.007019	-0.00351	0.04715	0.006714	0.28885	0.009918	0.054779	0.000763	0.025787	-0.032654	-0.076599	-0.015564	-0.025635	0.061035	0.85251	-0.012665	0.054474	-0.1445	-0.05722	-0.20187	-0.13473	-0.00473	0.17227	-0.007935	-1.3411	-0.054016	-0.002136	-0.004425
28.166	0.016632	0.006409	0.034485	-0.005035	0.010529	-0.002747	0.029297	0.007477	0.2887	0.018616	0.054016	0.00351	0.010223	0.010681	0.0177	0.009308	0.002747	0.17944	0.12039	0.057831	0.015717	-0.057526	0.068359	-0.052795	-0.067596	-0.023041	0.37598	-0.010376	-0.3331	-0.027618	-0.000458	-0.010223
28.167	0.010986	-0.028839	0.018005	-0.003815	0.006256	-0.001526	0.026703	0.00473	0.28671	-0.00473	-0.047607	0.001984	0.011597	0.071259	0.32425	0.005646	0.007629	0.1358	-0.73471	0.02594	-0.005493	0.018311	0.43167	0.045319	-0.14526	-0.032349	0.25635	-0.01358	0.77805	0.051422	-0.00351	-0.007935
28.168	0.003662	-0.025482	0.034485	-0.003967	-0.017395	-0.008545	0.010681	0.002899	0.29083	-0.041962	-0.17456	0.001068	0.079651	0.064697	0.20554	0.009918	-0.00824	0.10346	-0.77072	-0.042419	-0.027771	-0.049133	0.20966	0.14313	-0.18036	-0.02121	0.11154	-0.014801	0.68924	0.031281	-0.001373	-0.006561
28.169	0.006866	-0.003662	0.002747	0.000763	-0.050354	-0.064545	0.005951	0.014191	0.28549	-0.10696	0.049133	-0.001526	0.2771	0.095825	-0.060425	0.023499	0.003052	0.10742	-0.75241	-0.12482	-0.050507	-0.1181	-0.11337	0.15335	-0.023193	-0.0177	0.31494	0.005646	0.58304	-0.18356	0.002289	-0.003662
28.17	0.005951	0.016785	-0.012207	0.000763	-0.056763	-0.103	0.00473	0.004883	0.29556	-0.12344	-0.19486	-0.007172	0.29572	0.15472	0.12039	0.011749	0.01709	0.13306	-0.066528	-0.1622	-0.059204	-0.056458	-0.27206	0.14847	0.20859	0.004578	-0.1535	0.021057	0.31876	-0.24475	0.000153	0.005341
28.171	0.001831	0.019836	-0.04303	0.003967	0.01709	-0.1149	0.014648	-0.002441	0.28671	-0.067139	-0.15228	-0.000458	0.13626	0.10437	0.16724	-0.016022	0.032043	0.084076	-0.4776	-0.030365	-0.04715	-0.024261	-0.25528	-0.00061	0.22369	0.030975	-0.39185	0.00351	-0.084076	-0.28961	0	0.002441
28.172	0.02243	0.081177	-0.053406	0.018463	0.062256	-0.077209	0.021057	-0.001678	0.27603	-0.021515	-0.08316	0.001373	0.032959	0.000458	0.13825	-0.02243	0.043335	0.10208	-1.3345	0.13382	-0.072021	-0.09964	-0.27573	-0.33249	0.088806	0.044098	-0.89386	-0.002441	0.65918	-0.2475	-0.002747	0.004883
28.173	0.017395	0.071106	-0.064087	0.020447	0.055237	-0.025024	0.028687	0.005951	0.25543	-0.022583	0.040894	-0.001526	0.030518	-0.036621	-0.38391	-0.014038	0.038605	-0.00885	-1.465	0.13916	-0.065308	-0.16403	-0.18402	-0.42648	-0.028076	0.009308	-0.76584	-0.003357	0.42191	0.018005	-0.000305	-0.007172
28.174	0.002289	0.11688	-0.063019	0.018005	0.001526	-0.017242	0.016479	0.00351	0.23972	-0.017853	0.055542	-0.005951	0.050201	-0.046844	-0.41931	0.002136	0.020294	-0.032501	-0.67993	0.040894	-0.042572	-0.15305	-0.18036	-0.5513	-0.084839	-0.013428	0.11276	-0.014954	0.46875	-0.18417	0	-0.011444
28.175	0.023651	0.16052	-0.074615	0.012665	-0.066071	-0.069733	0.008392	0.002441	0.23743	-0.013275	-0.023041	0.006256	0.084381	-0.13168	-0.33875	0.000458	-0.000916	-0.00412	-0.28336	-0.11673	-0.032349	-0.082397	-0.37994	-0.49347	-0.042419	-0.012512	0.39032	-0.00824	0.80353	-0.27878	0.002289	-0.010376
